<svg id="Layer_1" data-name="Layer 1" xmlns="http://www.w3.org/2000/svg" viewBox="0 0 711.28 270.32"><defs><style>.cls-1,.cls-2{fill:#8ea326;}.cls-2{font-size:74px;font-family:BorgiaPro-Regular, Borgia Pro;letter-spacing:0.09em;}.cls-3{letter-spacing:0.07em;}.cls-4{letter-spacing:0.07em;}.cls-5{letter-spacing:0.07em;}.cls-6{letter-spacing:0.1em;}.cls-7{letter-spacing:0.07em;}.cls-8{letter-spacing:0.09em;}</style></defs><title>CPMH Holding AG_1</title><path class="cls-1" d="M342.62,74.85a3.1,3.1,0,0,0-.22.89c-.36,4,5.84,7.63,11.3,6.74a7.29,7.29,0,0,0,5.54-3.13,2.77,2.77,0,0,0,.12-3.38,7.53,7.53,0,0,0-3.93-3.14,40.73,40.73,0,0,0-8.86-1.89l-1.25-.14a4.9,4.9,0,0,0-.74,0c-2.83-.29-4.34-.45-4.82-.07S338.3,72.11,342.62,74.85Zm99.88.88a55.19,55.19,0,0,0-2.17-11.47,61.9,61.9,0,0,0-5.18-11.69c-3.39-6.1-6.83-12.18-10.25-18.27a44.54,44.54,0,0,0-9.93-12A59,59,0,0,0,401,13.52a91,91,0,0,0-17.58-5.87,116.32,116.32,0,0,0-15-2.46c-2.83-.28-5.68-.43-8.52-.58a77,77,0,0,0-15.69.74,96.15,96.15,0,0,0-14.21,3.37,183.57,183.57,0,0,0-22,8.66,30.56,30.56,0,0,0-7.37,4.86,63,63,0,0,0-7.95,8.46,112.67,112.67,0,0,0-13.05,21,63.14,63.14,0,0,0-4.43,11.74c-.67,2.63-1.25,5.28-2,7.89-.62,2.23-1.4,4.42-2.1,6.63A42.26,42.26,0,0,0,269.74,97,72.3,72.3,0,0,0,273,110.1a164,164,0,0,0,14.7,31.36A78,78,0,0,0,301.92,159a56,56,0,0,0,34.41,14.78,103.67,103.67,0,0,0,12.57.07c2-.07,4-.18,5.93-.2a82.24,82.24,0,0,0,12.42-1.16,133.28,133.28,0,0,0,19.48-4.73,111.81,111.81,0,0,0,22.91-10.18,73.94,73.94,0,0,0,17.94-14.64,54.1,54.1,0,0,0,12-22.38,79.91,79.91,0,0,0,2-13c.31-3.49.62-7,.83-10.48q.35-5.84.5-11.69A84.66,84.66,0,0,0,442.5,75.72ZM342,14.29a2.59,2.59,0,0,1,1.52-2.16,8.68,8.68,0,0,1,2-.47A74.58,74.58,0,0,1,356,11c3.76.09,7.81.31,11.85.76a108.08,108.08,0,0,1,17.43,3.36A70.44,70.44,0,0,1,404,23.22a45.27,45.27,0,0,1,12.37,11.4,2.19,2.19,0,0,1,.42,2.6,2.62,2.62,0,0,1-2.61,1.27c-1.79,0-3.59-.18-5.37-.07A17.06,17.06,0,0,0,398,42.71a25.1,25.1,0,0,0-2.29,2.5,7.84,7.84,0,0,1-2.76,2.19,3,3,0,0,1-2.67,0c-6.21-3-12.39-6.08-18.36-9.54a143,143,0,0,1-17.25-12c-4-3.15-7.8-6.44-11.71-9.66A1.92,1.92,0,0,1,342,14.29ZM305.94,26.13A23.88,23.88,0,0,1,311,23c3.19-1.44,6.41-2.81,9.63-4.2a2.23,2.23,0,0,1,2.2,0,2.06,2.06,0,0,1,.91,3,22.42,22.42,0,0,1-4.48,6.27A11,11,0,0,1,313.82,31c-1,.21-2.08.31-3.18.48-1.16-.18-2.36-.33-3.54-.58a2.75,2.75,0,0,1-1.3-.69C304.68,29.08,304.19,27.51,305.94,26.13Zm14.35,42a12.51,12.51,0,0,1,7.86-6.85A27.09,27.09,0,0,1,335.85,60c.42,0,.84,0,1.26,0a40,40,0,0,1,13.54,2.43c3.91,1.37,8.62,2.71,13.87,8.22s5.86,16.68,9.27,19.62,4.25,5.38,4.57,7.44a17,17,0,0,1,.12,4.82c-.15.91-.34,4-1.26,4.64s-2.13-1-2.82-1.36a30.64,30.64,0,0,0-7.21-2.77c-3.49-.91-7-1.87-10.54-2.43a21.69,21.69,0,0,0-6.45-.2,10.93,10.93,0,0,0-7.44,4.77,19.2,19.2,0,0,0-2.8,6.16c-.48,1.69-.86,3.42-1.28,5.13a2.8,2.8,0,0,1-2.39,2.32,1.71,1.71,0,0,1-1.81-.67c-1.11-1.47-2.28-2.9-3.34-4.41a60.79,60.79,0,0,1-9.07-20,81.1,81.1,0,0,1-2.15-10.6c-.23-1.88-.39-3.78-.52-5.67-.1-1.44-.17-2.9-.15-4.34A11.86,11.86,0,0,1,320.29,68.16ZM291.83,42.92a14.78,14.78,0,0,1,4.8-6A11.58,11.58,0,0,1,302,35a7.52,7.52,0,0,1,3.21.14,6.51,6.51,0,0,1,4.51,5.72,14.17,14.17,0,0,1-.16,2.44,5.25,5.25,0,0,1-3,3.87,2,2,0,0,1-1.61.11c-.68-.21-1.34-.47-2-.7a2.79,2.79,0,0,0-3.21,1.86,1.33,1.33,0,0,0,.11.77c1.4,2.81,4.27,4.23,7.15,3.22a5.53,5.53,0,0,0,2.34-1.56,17.09,17.09,0,0,0,4.52-9.05,17.65,17.65,0,0,0,0-3.15,2,2,0,0,1,.19-1.22,14.23,14.23,0,0,1,1.39-2c.67-.74,1.23-.71,2,0a2.68,2.68,0,0,1,1,3A139.6,139.6,0,0,0,315,55.13a5.5,5.5,0,0,1-.86,2.19,7.58,7.58,0,0,1-5.4,3.49c-1.17.18-2.35.3-3.52.45a13.4,13.4,0,0,1-9.63-4.15,15,15,0,0,1-4.41-8.47A10,10,0,0,1,291.83,42.92ZM278.49,99.4c-1.46,0-2.16-.5-2.44-1.8a30.43,30.43,0,0,1-.47-3.2,39.63,39.63,0,0,1,1.86-16.52c1-3,1.82-5.94,2.67-8.92.64-2.25,1.09-4.56,1.82-6.79s1.25-3.2,2.14-5.31a2.38,2.38,0,0,1,2.9-1.46,2.27,2.27,0,0,1,1.3.85c.23.29.41.61.61.92a20.19,20.19,0,0,0,8.35,7.48,20.45,20.45,0,0,0,2.66,1,3.37,3.37,0,0,1,2.4,2.59,1.67,1.67,0,0,1-.43,1.66c-2.25,2.48-3.84,4.36-6,6.9a160.41,160.41,0,0,0-13,17.08c-1,1.5-1.88,3-2.79,4.59C279.62,99.09,279.19,99.57,278.49,99.4Zm29.1,47.65a22.34,22.34,0,0,1-2.26.3c-.65.08-1.31.12-2,.24A4.93,4.93,0,0,1,300,147a8.41,8.41,0,0,1-2.6-2.27,90.62,90.62,0,0,1-8-12.48,182.63,182.63,0,0,1-8-16.9,8.17,8.17,0,0,1,.06-6.67,117.4,117.4,0,0,1,8.27-15.37c.43-.69,1-.67,1.63-.65a1.3,1.3,0,0,1,1.29.88,14,14,0,0,1,.38,1.7c-.19,1.36-.37,2.56-.53,3.76a49.87,49.87,0,0,0-.16,11.91,51.92,51.92,0,0,0,2.42,9.88,53,53,0,0,0,12.08,20.71c.72.77,1.46,1.52,2.25,2.23a1.31,1.31,0,0,1,.44,1.34A2.32,2.32,0,0,1,307.58,147.05Zm10.21,14a1.68,1.68,0,0,1-1.84,0c-2.06-1.17-4-2.46-6-3.81a1.57,1.57,0,0,1-.68-1.68,1.68,1.68,0,0,1,1.07-1.53,11.28,11.28,0,0,1,1.44-.35,8.63,8.63,0,0,1,7,3.66C319.87,158.92,319.49,160.11,317.79,161.07ZM343.38,165a5.85,5.85,0,0,1-2.65,2.17,5.67,5.67,0,0,1-1.33.18c-2.11-.23-4.32-.42-6.5-.72a9.08,9.08,0,0,1-4.9-2.38,14,14,0,0,1-3.53-4.89,2.59,2.59,0,0,1,1.95-3.72,1.86,1.86,0,0,1,1,.2c2.85,1.15,5.69,2.34,8.55,3.46,1.47.57,3,1,4.48,1.52a5.5,5.5,0,0,1,3.16,3.23A1.18,1.18,0,0,1,343.38,165Zm5.71-14.81a9.19,9.19,0,0,1-3.28,3.47,4.29,4.29,0,0,1-3.41.53,65.14,65.14,0,0,1-17.88-7A62.9,62.9,0,0,1,309.88,135a43.09,43.09,0,0,1-9-17,48.75,48.75,0,0,1-2-13.75,51.38,51.38,0,0,1,2.31-14.76c.46-1.56,1-3.12,1.43-4.69a27.16,27.16,0,0,1,6-10.24c.42-.47.86-.93,1.26-1.41a1.08,1.08,0,0,1,1-.4,2.53,2.53,0,0,1,2.43,2.7c.06,1.42.09,2.85.15,4.27a80.08,80.08,0,0,0,7.23,30A81.09,81.09,0,0,0,335.79,132c3.75,4,7.46,8,11.19,11.95.47.5,1,1,1.4,1.5a4.76,4.76,0,0,1,1.11,2.41A3.59,3.59,0,0,1,349.09,150.2Zm20.48,1.86a26.57,26.57,0,0,1-2.71,5.6,31.68,31.68,0,0,1-6.3,7,9.53,9.53,0,0,1-4.8,2.23c-.49.07-1,.08-1.49.12a3.06,3.06,0,0,1-2-.4,4.84,4.84,0,0,1-1.73-2.3,1.34,1.34,0,0,1,0-.83,26,26,0,0,1,5.7-9.19,23.7,23.7,0,0,1,8.58-5.78l.59-.21a2.81,2.81,0,0,1,3.6,1.08A2.54,2.54,0,0,1,369.57,152.06Zm-14.86-18.58a20,20,0,0,1-7.42-5.77,10.88,10.88,0,0,1-2.58-7.21,11.14,11.14,0,0,1,.66-3.4,15.25,15.25,0,0,1,4.17-6.25,8.85,8.85,0,0,1,8.05-2.28c4.94,1,13.5,4.64,15.75,6.6s.73,4,2.2,6.91a5.27,5.27,0,0,0,2.54,2.49,2.29,2.29,0,0,0,2.58-.31c3.56-2.76,5.38-5.1,6.37-9.93A56.13,56.13,0,0,0,388.39,101c-.09-4.87-1.12-8.85-5.21-12.4s-5-12.68-9.39-18.88-12.52-10.09-18.63-12.67a60.51,60.51,0,0,0-20-4.38,36.4,36.4,0,0,0-9.69,1.26,1.82,1.82,0,0,1-1.64-.27,9.8,9.8,0,0,1-1-.85,2.57,2.57,0,0,1-.77-2.44,123.24,123.24,0,0,1,8.68-30.31,4.41,4.41,0,0,1,2.14-2.23,2.51,2.51,0,0,1,2.95.32l3.89,3.11c6.42,5.1,13,10,19.62,14.82a155.63,155.63,0,0,0,29.27,16.68,7.51,7.51,0,0,1,3.71,3.84,4.11,4.11,0,0,1,.3,1.38,23.94,23.94,0,0,0,2.68,9,14.67,14.67,0,0,0,3.9,4.63c3.26,2.56,6.86,2.85,10.68,1.54a11,11,0,0,0,1.73-.77,21.77,21.77,0,0,0,7.18-6.44,8.92,8.92,0,0,0,1.52-3.36,7,7,0,0,0-.86-5.1,10.51,10.51,0,0,0-3.55-3.65,4.82,4.82,0,0,0-3.62-.76,3.62,3.62,0,0,0-2.69,2.54,1.54,1.54,0,0,0,.27,1.43c.39.56.82,1.1,1.25,1.63.56.7,1.17,1.36,1.68,2.09a2.46,2.46,0,0,1,0,3.33,8.14,8.14,0,0,1-8.52,3.12,6.84,6.84,0,0,1-1.76-.86,8.74,8.74,0,0,1-3.58-5.14,16.75,16.75,0,0,1-.27-7.9,8.47,8.47,0,0,1,1.2-2.82,12.11,12.11,0,0,1,8.95-5.74c7-.77,12.75,1.77,17.15,7.27a12,12,0,0,1,2.12,4.3,56,56,0,0,1,1.81,8.81,22.44,22.44,0,0,1-.78,9.15c-.52,1.69-1,3.39-1.52,5.07a34.89,34.89,0,0,1-3.77,7.37,172.92,172.92,0,0,1-16.4,22.17,161.73,161.73,0,0,1-14.94,15.35,86.83,86.83,0,0,1-9.78,7.64A25.7,25.7,0,0,1,370,136.18,31,31,0,0,1,354.71,133.48Zm68.8,2.44a12.81,12.81,0,0,1-3.63,3.37,5.73,5.73,0,0,1-4.13,1,2.73,2.73,0,0,1-.46-.12,6.14,6.14,0,0,1-3.71-5.35,2.1,2.1,0,0,1,.35-1.19,5.13,5.13,0,0,1,2.35-1.93,1.51,1.51,0,0,1,.61-.13,3.41,3.41,0,0,0,2.52-1.29,1.54,1.54,0,0,0,.07-2.32,4.69,4.69,0,0,0-6.91-.81,8.28,8.28,0,0,0-3.05,5.86c-.09.76-.13,1.52-.21,2.43.07.7.12,1.55.26,2.38a8.67,8.67,0,0,0,2.89,5.13,6.15,6.15,0,0,1,1.27,1.59,2.73,2.73,0,0,1-.89,3.7,46.94,46.94,0,0,1-10.35,6,21,21,0,0,0-3.25,1.61,49.17,49.17,0,0,1-10,4.51c-3,1-6.08,1.91-9.11,2.88a1.67,1.67,0,0,1-1.57-.24,6.11,6.11,0,0,1-.74-.58,2.1,2.1,0,0,1-.56-3,24.14,24.14,0,0,1,1.76-3.08,188.06,188.06,0,0,1,12.27-15.89c3.06-3.48,6.18-6.92,9.26-10.39,1.19-1.34,2.35-2.71,3.54-4a20.37,20.37,0,0,1,7-5.27c4.37-1.91,8.28-1.12,11.83,1.89a11.52,11.52,0,0,1,4,6.13A8.29,8.29,0,0,1,423.51,135.92Zm11.8-43.69c-.24,3.31-.46,6.83-.76,10.35-.36,4.07-.65,8.14-1.4,12.17a48.67,48.67,0,0,1-1.67,6.5,2.67,2.67,0,0,1-2.39,2,2.06,2.06,0,0,1-1.79-.63,9.27,9.27,0,0,1-.61-.72,18,18,0,0,0-9.5-6.33l-.83-.24a3.45,3.45,0,0,1-2.38-3,1.2,1.2,0,0,1,.38-1c1.83-2.35,3.68-4.68,5.47-7.07a151.85,151.85,0,0,0,10.51-15.5q.91-1.57,1.72-3.2a.86.86,0,0,1,1-.58c.16,0,.32,0,.48,0,1.1,0,1.5.31,1.76,1.4a6,6,0,0,1,.15,1.33C435.38,89.17,435.34,90.59,435.31,92.23Z" transform="translate(-1.35 -4.5)"/><text class="cls-2" transform="translate(0 247.39)">CPMH <tspan class="cls-3" x="288.38" y="0">H</tspan><tspan class="cls-4" x="356.53" y="0">O</tspan><tspan x="427.05" y="0">L</tspan><tspan class="cls-5" x="477.3" y="0">D</tspan><tspan class="cls-6" x="542.94" y="0">I</tspan><tspan class="cls-7" x="576.01" y="0">N</tspan><tspan class="cls-8" x="646.61" y="0">G</tspan></text></svg>